# xmcd CD database file
#
# Track frame offsets:
#	150
#	17906
#	31222
#	49218
#	62974
#	81820
#	100386
#	115964
#	135745
#	152401
#	171117
#
# Disc length: 2505 seconds
#
# Revision: 9
# Processed by: cddbd v1.5PL3 Copyright (c) Steve Scherf et al.
# Submitted via: CDex 1.50beta8
#
DISCID=8e09c70b
DTITLE=椎名林檎 - 無罪モラトリアム
DYEAR=1999
DGENRE=
TTITLE0=正しい街
TTITLE1=歌舞伎町の女
TTITLE2=丸の内サディスティック
TTITLE3=幸福論
TTITLE4=茜さす 帰路照らされど・・・
TTITLE5=シドと白昼夢
TTITLE6=積木遊び
TTITLE7=ここでキスして。
TTITLE8=同じ夜
TTITLE9=警告
TTITLE10=モルヒネ
EXTD=Year:99.2.24 TOCT24065 YEAR: 1999
EXTT0=
EXTT1=
EXTT2=
EXTT3=
EXTT4=
EXTT5=
EXTT6=
EXTT7=
EXTT8=
EXTT9=
EXTT10=
PLAYORDER=
